<!-- icon666.com - MILLIONS OF FREE VECTOR ICONS --><svg id="Layer_1" enable-background="new 0 0 512 512" viewBox="0 0 512 512" xmlns="http://www.w3.org/2000/svg"><g><path d="m383.802 215.945c-2.806 3.033-7.54 3.205-10.573.369-3.005-2.807-3.203-7.541-.368-10.574l70.073-75.459c6.944-7.482 10.12-16.555 10.12-25.342 0-4.875-.964-9.609-2.75-13.889-1.814-4.281-4.479-8.137-7.881-11.311-5.557-5.16-13.238-8.449-22.593-8.449-9.383 0-17.887 3.801-24.037 9.951-6.151 6.15-9.95 14.654-9.95 24.037 0 4.139-3.373 7.512-7.512 7.512s-7.512-3.373-7.512-7.512c0-13.521 5.499-25.766 14.372-34.641 8.844-8.844 21.117-14.344 34.639-14.344 13.408 0 24.55 4.848 32.77 12.473 4.961 4.623 8.845 10.264 11.452 16.471 2.637 6.209 3.997 12.926 3.997 19.701 0 12.33-4.45 25.059-14.173 35.518zm-244.634-10.205c2.807 3.033 2.637 7.768-.396 10.574-3.033 2.836-7.768 2.664-10.573-.369l-70.073-75.488c-9.724-10.459-14.174-23.188-14.174-35.518 0-6.775 1.39-13.492 3.997-19.701 2.637-6.207 6.491-11.848 11.452-16.471 8.221-7.625 19.39-12.473 32.798-12.473 13.522 0 25.767 5.5 34.64 14.344 8.844 8.875 14.343 21.119 14.343 34.641 0 4.139-3.373 7.512-7.512 7.512s-7.483-3.373-7.483-7.512c0-9.383-3.799-17.887-9.949-24.037-6.151-6.15-14.655-9.951-24.038-9.951s-17.036 3.289-22.594 8.449c-3.43 3.174-6.094 7.029-7.88 11.311-1.814 4.279-2.778 9.014-2.778 13.889 0 8.787 3.175 17.859 10.148 25.342z" fill="#ebb044"></path><g clip-rule="evenodd" fill-rule="evenodd"><path d="m126.186 39.939h259.657v176.912c0 15.055-4.28 22.367-13.89 30.021l-75.601 60.15c-10.178 8.107-13.862 21.26-13.862 35.264v83.85h-52.951v-83.85c0-14.004-3.714-27.156-13.892-35.264l-75.601-60.15c-9.609-7.654-13.861-14.967-13.861-30.021v-176.912z" fill="#ffe07d"></path><path d="m386.58 192.445v25.002c0 15.053-4.252 22.367-13.89 30.02l-74.836 59.557h-82.207l-74.863-59.557c-9.609-7.652-13.861-14.967-13.861-30.02v-25.002c0 15.053 4.252 22.365 13.861 30.021l68.77 54.707c4.564 3.629 9.581 4.848 15.138 4.848h64.686c5.783 0 10.574-1.672 14.685-4.932l68.628-54.623c9.637-7.655 13.889-14.968 13.889-30.021z" fill="#ffd064"></path><path d="m126.186 39.939h259.657c10.97 0 19.956-8.986 19.956-19.984 0-10.969-8.986-19.955-19.956-19.955h-259.657c-10.998 0-19.984 8.986-19.984 19.955-.001 10.998 8.986 19.984 19.984 19.984z" fill="#ebb044"></path><path d="m208.93 421.148h94.141c8.192 0 14.882 6.689 14.882 14.881v20.41h-123.905v-20.41c0-8.191 6.718-14.881 14.882-14.881z" fill="#ebb044"></path><path d="m174.517 451.424h162.967c8.191 0 14.881 6.717 14.881 14.881v20.41h-192.702v-20.41c0-8.164 6.691-14.881 14.854-14.881z" fill="#ffe07d"></path><path d="m140.132 481.725h231.765c8.164 0 14.882 6.689 14.882 14.883v9.41c0 3.291-2.722 5.982-6.01 5.982h-249.538c-3.288 0-5.981-2.691-5.981-5.982 0-3.147 0-6.293 0-9.41 0-8.194 6.689-14.883 14.882-14.883z" fill="#ebb044"></path><path d="m197.591 0h35.916l21.855 5.754 23.131-5.754h35.916v224.535c0 3.939-1.871 4.988-5.273 3.119l-47.879-26.252c-3.939-2.154-7.058-1.898-10.516 0l-47.879 26.252c-3.175 1.756-5.272.424-5.272-3.119v-224.535z" fill="#dd636e"></path><path d="m314.409 199.533v25.002c0 3.939-1.871 4.988-5.273 3.119l-47.879-26.252c-3.939-2.154-7.058-1.898-10.516 0l-47.879 26.252c-3.175 1.756-5.272.424-5.272-3.119v-25.002c0 3.543 2.098 4.875 5.272 3.117l47.879-26.248c3.458-1.9 6.576-2.154 10.516 0l47.879 26.248c3.402 1.871 5.273.823 5.273-3.117z" fill="#da4a54"></path><path d="m233.507 0h44.986v210.871l-17.235-9.469c-3.939-2.154-7.058-1.898-10.516 0l-17.235 9.469z" fill="#61a2f9"></path><path d="m278.493 185.869v25.002l-17.235-9.469c-3.939-2.154-7.058-1.898-10.516 0l-17.235 9.469v-25.002l17.235-9.467c3.458-1.9 6.576-2.154 10.516 0z" fill="#5490f9"></path><path d="m229.539 396.147h52.951v25.002h-52.951z" fill="#ffd064"></path><path d="m208.618 306.43h94.764c8.334 0 15.137 6.803 15.137 15.137s-6.803 15.164-15.137 15.164h-94.764c-8.306 0-15.137-6.83-15.137-15.164 0-8.335 6.832-15.137 15.137-15.137z" fill="#ebb044"></path></g></g></svg>